

<svg width="151" height="45" viewBox="0 0 151 45" fill="none" xmlns="http://www.w3.org/2000/svg">
<path fill-rule="evenodd" clip-rule="evenodd" d="M62.0601 12.0536C62.4494 12.2129 62.6034 12.6653 62.4406 13.0531L62.1556 13.7322C61.99 14.1267 61.5506 14.3278 61.1413 14.2036C60.5997 14.0392 60.1756 13.9239 59.8689 13.8578C59.437 13.7646 58.8739 13.7181 58.1796 13.7181C57.1974 13.7181 56.3125 13.9933 55.525 14.5436C54.7376 15.094 54.1152 15.873 53.658 16.8807C53.2007 17.8883 52.9721 19.0526 52.9721 20.3735C52.9721 21.5759 53.1711 22.6682 53.569 23.6504C53.967 24.6327 54.5428 25.4159 55.2964 26.0002C56.05 26.5844 56.9433 26.8765 57.9764 26.8765C59.0353 26.8765 60.056 26.7079 61.0388 26.3705C61.451 26.229 61.9162 26.3915 62.1148 26.7795L62.4742 27.4816C62.6832 27.8899 62.5191 28.3922 62.0886 28.5505C61.6423 28.7147 61.1394 28.8595 60.5801 28.985C59.6741 29.1882 58.8485 29.2898 58.1034 29.2898C56.376 29.2898 54.9027 28.896 53.6834 28.1086C52.464 27.3211 51.5453 26.2542 50.9272 24.9079C50.3091 23.5615 50 22.0586 50 20.3989C50 18.6546 50.3387 17.0924 51.0161 15.7122C51.6935 14.332 52.6546 13.2524 53.8993 12.4733C55.144 11.6943 56.5962 11.3048 58.2558 11.3048C58.8655 11.3048 59.6106 11.398 60.4912 11.5843C61.0734 11.7074 61.5964 11.8639 62.0601 12.0536ZM67.2229 30.0265L67.746 28.6454C67.8181 28.4551 67.8173 28.245 67.7438 28.0552L63.8021 17.8803C63.6317 17.4402 63.8645 16.9471 64.3126 16.7991L65.498 16.4076C65.9212 16.2678 66.3789 16.4895 66.5317 16.9082L68.6311 22.6648C68.895 23.3882 69.9183 23.3876 70.1813 22.6639L72.1822 17.1571C72.3007 16.831 72.6105 16.6139 72.9575 16.6139H74.1756C74.7546 16.6139 75.1534 17.1949 74.9454 17.7352L69.8901 30.8647C69.5514 31.7623 68.946 32.5413 68.0739 33.2018C67.3875 33.7215 66.6462 34.1101 65.8498 34.3677C65.4725 34.4897 65.0765 34.2847 64.9189 33.9209L64.5293 33.0218C64.3476 32.6026 64.5425 32.1178 64.9555 31.9224C65.4437 31.6915 65.8566 31.4701 66.1941 31.2585C66.6937 30.9452 67.0366 30.5345 67.2229 30.0265ZM82.566 16.2837C83.8192 16.2837 84.9115 16.5504 85.8429 17.0839C86.7743 17.6173 87.4898 18.3752 87.9894 19.3574C88.489 20.3396 88.7388 21.4912 88.7388 22.8122C88.7388 24.0823 88.4847 25.2042 87.9767 26.178C87.4686 27.1517 86.7447 27.9096 85.8048 28.4515C84.8649 28.9934 83.7684 29.2644 82.5152 29.2644C82.0579 29.2644 81.5456 29.1628 80.9783 28.9596C80.6159 28.8297 80.2691 28.6723 79.9378 28.4872C79.6239 28.3118 79.2208 28.3756 79.0065 28.6644C78.8806 28.8341 78.6818 28.9341 78.4705 28.9341H78.1325C77.677 28.9341 77.3077 28.5648 77.3077 28.1093V12.0272C77.3077 11.6029 77.6296 11.2478 78.0519 11.2063L79.2472 11.0889C79.7323 11.0413 80.1527 11.4224 80.1527 11.9098V15.5727C80.1527 16.1947 80.8223 16.5953 81.4237 16.4367C81.8103 16.3347 82.1911 16.2837 82.566 16.2837ZM82.5152 26.8003C83.5313 26.8003 84.3314 26.4278 84.9157 25.6826C85.5 24.9375 85.7921 23.9807 85.7921 22.8122C85.7921 21.5928 85.5042 20.6064 84.9284 19.8528C84.3526 19.0992 83.5482 18.7224 82.5152 18.7224C82.0749 18.7224 81.6642 18.7901 81.2831 18.9256C81.0207 19.0189 80.7603 19.1443 80.5019 19.3019C80.2765 19.4393 80.1527 19.6914 80.1527 19.9553V25.6197C80.1527 25.8828 80.2754 26.1351 80.5024 26.268C81.1082 26.6229 81.7792 26.8003 82.5152 26.8003ZM101.618 22.6851V22.6986C101.618 23.1541 101.249 23.5234 100.793 23.5234H94.0081C93.5151 23.5234 93.1225 23.9581 93.2653 24.4299C93.749 26.0271 95.0005 26.8257 97.02 26.8257C97.6804 26.8257 98.2689 26.7368 98.7854 26.559C99.1006 26.4505 99.4552 26.3057 99.8492 26.1247C100.287 25.9237 100.81 26.114 100.995 26.5588L101.261 27.2009C101.41 27.56 101.29 27.9784 100.954 28.1739C99.7335 28.884 98.4052 29.239 96.9692 29.239C94.7337 29.239 93.0276 28.659 91.8506 27.4989C90.6736 26.3389 90.0851 24.7597 90.0851 22.7613C90.0851 21.4743 90.3264 20.3439 90.8091 19.3701C91.2917 18.3963 91.986 17.6385 92.8921 17.0966C93.7981 16.5547 94.8692 16.2837 96.1055 16.2837C97.9175 16.2837 99.2893 16.8849 100.221 18.0873C101.152 19.2897 101.618 20.8223 101.618 22.6851ZM93.3376 20.7034C93.1796 21.1754 93.5744 21.6182 94.0721 21.6182H97.9063C98.4141 21.6182 98.8107 21.1589 98.6458 20.6787C98.4742 20.179 98.2371 19.7725 97.9345 19.459C97.4603 18.9679 96.8252 18.7224 96.0293 18.7224C95.2164 18.7224 94.5602 18.9764 94.0606 19.4844C93.7422 19.8082 93.5012 20.2146 93.3376 20.7034ZM106.848 20.8437C106.669 20.9941 106.571 21.2183 106.571 21.4521V28.1093C106.571 28.5648 106.202 28.9341 105.746 28.9341H104.551C104.096 28.9341 103.726 28.5648 103.726 28.1093V17.4388C103.726 16.9832 104.096 16.6139 104.551 16.6139H104.723C105.045 16.6139 105.337 16.8007 105.472 17.0925L105.739 17.6707C105.967 18.1629 106.6 18.3055 107.048 17.9992C107.433 17.7359 107.845 17.4858 108.286 17.249C108.807 16.9689 109.285 16.7814 109.721 16.6867C110.089 16.6066 110.422 16.8694 110.515 17.2346L110.678 17.8711C110.811 18.3927 110.411 18.9155 109.897 19.075C109.556 19.1806 109.193 19.334 108.807 19.5352C108.103 19.9016 107.45 20.3378 106.848 20.8437ZM117.049 22.7359C116.594 22.7359 116.224 23.1052 116.224 23.5608V28.1093C116.224 28.5648 115.855 28.9341 115.399 28.9341H114.204C113.748 28.9341 113.379 28.5648 113.379 28.1093V12.4853C113.379 12.0298 113.748 11.6605 114.204 11.6605H118.536C120.534 11.6605 122.147 12.105 123.375 12.9941C124.603 13.8832 125.217 15.2591 125.217 17.122C125.217 18.3583 124.899 19.3997 124.264 20.2465C123.629 21.0933 122.791 21.7198 121.749 22.1263C120.708 22.5327 119.56 22.7359 118.307 22.7359H117.049ZM118.485 14.0483H117.049C116.594 14.0483 116.224 14.4176 116.224 14.8732V19.5487C116.224 20.0042 116.594 20.3735 117.049 20.3735H118.434C119.569 20.3735 120.471 20.1195 121.14 19.6114C121.809 19.1034 122.168 18.3244 122.219 17.2744C122.219 16.1059 121.902 15.2761 121.267 14.785C120.632 14.2939 119.704 14.0483 118.485 14.0483ZM129.335 19.3761C128.877 19.5382 128.359 19.3146 128.204 18.8538L127.91 17.9806C127.79 17.6246 127.925 17.2289 128.271 17.0804C128.664 16.9109 129.158 16.7554 129.751 16.6139C130.674 16.3938 131.423 16.2837 131.999 16.2837C132.948 16.2837 133.815 16.4785 134.603 16.868C135.39 17.2575 136.013 17.7867 136.47 18.4556C136.927 19.1246 137.156 19.8739 137.156 20.7037V28.1093C137.156 28.5648 136.787 28.9341 136.331 28.9341H135.663C135.416 28.9341 135.197 28.778 135.116 28.545C134.977 28.1457 134.467 28.0223 134.122 28.2664C133.832 28.4713 133.522 28.6516 133.193 28.8071C132.583 29.095 131.974 29.239 131.364 29.239C129.942 29.239 128.862 28.8833 128.125 28.1721C127.389 27.4608 127.02 26.5125 127.02 25.327C127.02 24.0907 127.439 23.1339 128.278 22.4565C129.116 21.7791 130.221 21.4404 131.593 21.4404H133.444C133.906 21.4404 134.292 21.0568 134.199 20.6043C133.962 19.4513 133.246 18.8748 132.05 18.8748C131.186 18.8748 130.281 19.0419 129.335 19.3761ZM129.51 25.327C129.51 25.7673 129.671 26.1526 129.992 26.4828C130.314 26.813 130.754 26.9782 131.313 26.9782C131.838 26.9782 132.363 26.8511 132.888 26.5971C133.317 26.3896 133.712 26.1198 134.073 25.7879C134.23 25.6437 134.311 25.4366 134.311 25.2234V24.1705C134.311 23.7149 133.942 23.3456 133.486 23.3456H131.542C130.915 23.3456 130.42 23.5361 130.056 23.9172C129.692 24.2982 129.51 24.7681 129.51 25.327ZM142.465 30.0265L142.988 28.6454C143.06 28.4551 143.059 28.245 142.986 28.0552L139.044 17.8803C138.874 17.4402 139.107 16.9471 139.555 16.7991L140.74 16.4076C141.163 16.2678 141.621 16.4895 141.774 16.9082L143.873 22.6648C144.137 23.3882 145.16 23.3876 145.423 22.6639L147.424 17.1571C147.543 16.831 147.853 16.6139 148.2 16.6139H149.418C149.997 16.6139 150.396 17.1949 150.187 17.7352L145.132 30.8647C144.794 31.7623 144.188 32.5413 143.316 33.2018C142.63 33.7215 141.888 34.1101 141.092 34.3677C140.715 34.4897 140.319 34.2847 140.161 33.9209L139.771 33.0218C139.59 32.6026 139.785 32.1178 140.198 31.9224C140.686 31.6915 141.099 31.4701 141.436 31.2585C141.936 30.9452 142.279 30.5345 142.465 30.0265Z" fill="#0F283C"/>
<path fill-rule="evenodd" clip-rule="evenodd" d="M6.74023 38.4293C15.7289 47.1903 30.2928 47.1903 39.1677 38.4293L23.0108 22.5L6.74023 38.4293Z" fill="#2F8ED6"/>
<path fill-rule="evenodd" clip-rule="evenodd" d="M6.74149 6.5708C-2.24716 15.3319 -2.24716 29.6682 6.74149 38.4293L23.0121 22.5001L6.74149 6.5708Z" fill="#0F283C"/>
<path fill-rule="evenodd" clip-rule="evenodd" d="M39.1677 6.57082C30.2928 -2.19027 15.7289 -2.19027 6.74023 6.57082L23.0108 22.5001L39.1677 6.57082Z" fill="#DD0A35"/>
</svg>
